<svg width="62" height="31" viewBox="0 0 62 31" fill="none" xmlns="http://www.w3.org/2000/svg">
<path d="M4.81424 18.1137V10.2632H4.70879C4.36699 10.2632 4.09064 9.98682 4.09064 9.64501V8.69232C4.09064 8.35052 4.36699 8.07417 4.70879 8.07417H4.81424C4.81424 3.03801 7.61776 1.64534 10.1886 1.65625V3.8198C7.65413 3.8198 6.38509 5.05247 6.38509 8.08144L10.2395 8.07417V10.2632L6.356 10.2704V18.121L4.81424 18.1137Z" fill="white"/>
<path d="M25.2389 17.2193L22.1699 8.09967H24.8607L26.7079 14.9285C26.7006 12.9322 27.8387 10.4123 28.9769 8.16876L31.6422 8.30693C30.035 10.9868 28.5296 13.7503 28.5333 16.6048C28.5333 16.9429 28.2569 17.2193 27.9187 17.2193H25.2425H25.2389Z" fill="white"/>
<path d="M14.6211 17.2193C13.123 17.2193 12.3085 16.6084 12.1776 15.4012C12.2285 14.1794 11.8103 12.0595 13.2975 11.4886C13.952 11.1105 17.6028 11.3723 18.4609 11.2995C18.3882 10.3396 18.33 10.2814 17.2537 10.2814H12.3085V8.09967C22.2499 7.9215 21.0317 7.57606 21.0317 16.6011C21.0317 16.9429 20.7554 17.2193 20.4136 17.2193H14.6211ZM18.5882 14.4921V13.2631C18.0064 13.4304 14.3229 12.7795 14.5593 13.8594C14.5884 14.5503 14.3229 15.0957 15.4756 15.0376C15.4756 15.0376 17.1519 15.0376 18.0428 15.0376C18.3446 15.0376 18.5846 14.7939 18.5846 14.4921H18.5882Z" fill="white"/>
<path d="M41.1146 13.6885H35.1984C35.1803 14.6376 35.1257 15.103 36.6093 15.0412H41.8309V16.5575C41.8309 16.9066 41.5473 17.1829 41.2018 17.1757C38.322 17.0957 32.4313 18.3429 32.7876 14.2849C32.8604 12.2741 32.1331 7.8597 35.1585 8.10333C40.5837 8.14696 42.0163 7.20154 41.7364 13.0958C41.7218 13.4267 41.4491 13.6885 41.1182 13.6885H41.1146ZM35.2021 11.725H39.1001C39.1146 10.9578 39.1874 10.2051 38.1401 10.2851H36.2493C35.1075 10.1941 35.1912 10.8668 35.2021 11.725Z" fill="white"/>
<path d="M59.6519 19.8701C56.5939 19.8701 52.085 16.8484 51.8777 16.7066C45.558 13.154 40.4382 15.9539 40.3873 15.983L40.2237 15.6957C40.2746 15.6666 45.5507 12.7722 52.0486 16.4266C52.1141 16.4702 57.612 20.1574 60.4483 19.4519L60.5283 19.7719C60.2556 19.841 59.961 19.8701 59.6519 19.8701Z" fill="white"/>
<path d="M47.4598 29.9751C47.4307 29.9205 44.5362 24.5208 48.1906 17.8738C48.2343 17.8047 51.9214 12.1758 51.216 9.27049L51.5396 9.19049C52.2777 12.2376 48.6306 17.8083 48.4743 18.0447C44.918 24.5244 47.7216 29.7605 47.7507 29.8151L47.4598 29.9751Z" fill="white"/>
<path d="M53.8158 27.8079C53.7868 27.7534 50.8923 22.3536 54.5467 15.7066C54.5904 15.6375 58.2775 10.0086 57.5721 7.10331L57.8957 7.02332C58.6338 10.0705 54.9867 15.6411 54.8303 15.8775C51.2778 22.3499 54.0777 27.5934 54.1067 27.6479L53.8158 27.8079Z" fill="white"/>
<path d="M56.9066 25.3717C53.4813 25.3717 48.4197 22.3537 48.187 22.2118C41.0746 18.652 35.3075 21.4591 35.2493 21.4882L35.093 21.1755C35.1512 21.1464 41.0673 18.2593 48.3543 21.9064C48.427 21.95 54.6122 25.6408 57.812 24.9354L57.8884 25.2772C57.583 25.3463 57.2557 25.3753 56.9103 25.3753L56.9066 25.3717Z" fill="white"/>
<path d="M61.1864 11.2777C56.4157 -2.18717 36.5802 -4.05619 28.9732 8.1724C28.9478 8.24148 28.9223 8.30694 28.886 8.37239C29.2205 8.36511 31.6349 8.31057 31.6349 8.31057C37.4165 -1.69992 56.3539 1.06724 59.6156 11.7141C64.8263 26.5789 44.5508 35.2876 33.7876 26.928C33.6603 27.0371 33.5221 27.128 33.373 27.2043C44.5362 36.5785 66.4917 27.0807 61.1864 11.2777Z" fill="white"/>
<path d="M30.7441 24.1463C30.2568 25.8044 29.2714 27.6007 27.4933 28.0915L27.4315 27.7497L33.7803 26.9025L33.8494 27.5534L27.4679 28.0952C27.2606 28.1134 27.2061 27.8043 27.4061 27.7534C28.6315 27.4298 29.4532 26.3425 29.9659 25.2371C30.1405 24.859 30.2968 24.459 30.4023 24.0626L30.7405 24.1463H30.7441Z" fill="white"/>
<path d="M3.81032 20.7057C5.44876 20.3488 6.58811 19.1925 6.35514 18.1231C6.12217 17.0537 4.60509 16.4761 2.96665 16.8331C1.32822 17.19 0.188861 18.3463 0.421832 19.4157C0.654803 20.4851 2.17188 21.0627 3.81032 20.7057Z" fill="white"/>
</svg>
