<svg width="24" height="16" viewBox="0 0 24 16" fill="none" xmlns="http://www.w3.org/2000/svg">
<g clip-path="url(#clip0_289_199)">
<path d="M22.4319 3.12883H1.5681C0.706749 3.12883 0 2.42945 0 1.56074C0 0.692025 0.699387 0 1.5681 0H22.4393C23.3006 0 24.0074 0.699387 24.0074 1.5681C24.0074 2.43681 23.308 3.1362 22.4393 3.1362L22.4319 3.12883Z" fill="white"/>
<path d="M22.4319 9.39389H1.5681C0.706749 9.39389 0 8.6945 0 7.82579C0 6.95708 0.699387 6.25769 1.5681 6.25769H22.4393C23.3006 6.25769 24.0074 6.95708 24.0074 7.82579C24.0074 8.6945 23.308 9.39389 22.4393 9.39389H22.4319Z" fill="white"/>
<path d="M22.4319 15.6515H1.5681C0.706749 15.6515 0 14.9521 0 14.0834C0 13.2147 0.699387 12.5153 1.5681 12.5153H22.4393C23.3006 12.5153 24.0074 13.2147 24.0074 14.0834C24.0074 14.9521 23.308 15.6515 22.4393 15.6515H22.4319Z" fill="white"/>
</g>
<defs>
<clipPath id="clip0_289_199">
<rect width="24" height="15.6515" fill="white"/>
</clipPath>
</defs>
</svg>
