<svg width="20" height="26" viewBox="0 0 20 26" fill="none" xmlns="http://www.w3.org/2000/svg">
<path d="M12.55 22.7926C12.363 23.3193 12.0174 23.7752 11.5608 24.0976C11.1042 24.42 10.559 24.5931 10 24.5931C9.44106 24.5931 8.89582 24.42 8.43922 24.0976C7.98262 23.7752 7.63705 23.3193 7.45001 22.7926" stroke="white" stroke-width="2" stroke-linecap="round" stroke-linejoin="round"/>
<path d="M17.2 9.89261C17.1995 8.40407 16.7377 6.95226 15.8781 5.73701C15.0185 4.52175 13.8034 3.60279 12.4 3.10661C12.3284 2.5253 12.0467 1.99023 11.6079 1.60221C11.1692 1.21419 10.6037 1 10.018 1C9.43229 1 8.8668 1.21419 8.42805 1.60221C7.98931 1.99023 7.7076 2.5253 7.636 3.10661C6.22586 3.59678 5.00296 4.51316 4.13655 5.72893C3.27015 6.94469 2.80308 8.39972 2.8 9.89261V13.4926C2.8 14.4526 1 15.8926 1 17.0926V19.4926H19V17.0926C19 16.1206 17.8 15.0226 17.374 14.0926" stroke="white" stroke-width="2" stroke-linecap="round" stroke-linejoin="round"/>
</svg>
